{"title":"CAPTAIN AMERICA CIVIL WAR (2016) HDTS x264 AAC TeriKasam","uid":14499613,"size":1076045643,"categoryP":"video","categoryS":"movies","magnet":"?xt=urn:btih:7477205c4823ae345277b2d1c111cc2da7604065&amp;dn=CAPTAIN+AMERICA+CIVIL+WAR+%282016%29+HDTS+x264+AAC+TeriKasam&amp;tr=udp%3A%2F%2Ftracker.leechers-paradise.org%3A6969&amp;tr=udp%3A%2F%2Fzer0day.ch%3A1337&amp;tr=udp%3A%2F%2Fopen.demonii.com%3A1337&amp;tr=udp%3A%2F%2Ftracker.coppersurfer.tk%3A6969&amp;tr=udp%3A%2F%2Fexodus.desync.com%3A6969","seeders":3,"leechers":3,"uploader":".BONE.","files":1,"time":1462163127,"description":"General \r\nComplete name : CAPTAIN AMERICA CIVIL WAR (2016) HDTS x264 AAC 1.2Gb...By...TeriKasam.mp4 \r\nFormat : MPEG-4 \r\nFormat profile : Base Media \r\nCodec ID : isom (isom/iso2/avc1/mp41) \r\nFile size : 1.00 GiB \r\nDuration : 2h 17mn \r\nOverall bit rate mode : Variable \r\nOverall bit rate : 1 040 Kbps \r\nWriting application : Lavf57.3.100 \r\n\r\nVideo \r\nID : 1 \r\nFormat : AVC \r\nFormat/Info : Advanced Video Codec \r\nFormat profile :    \r\nFormat settings, CABAC : Yes \r\nFormat settings, ReFrames : 4 frames \r\nCodec ID : avc1 \r\nCodec ID/Info : Advanced Video Coding \r\nDuration : 2h 17mn \r\nBit rate : 920 Kbps \r\nWidth : 720 pixels \r\nHeight : 400 pixels \r\nDisplay aspect ratio : 16:9 \r\nFrame rate mode : Variable \r\nFrame rate : 29.970 (29970/1000) fps \r\nMinimum frame rate : 14.925 fps \r\nMaximum frame rate : 30.303 fps \r\nColor space : YUV \r\nChroma subsampling : 4:2:0 \r\nBit depth : 8 bits \r\nScan type : Progressive \r\nBits/(Pixel*Frame) : 0.107 \r\nStream size : 907 MiB (88%) \r\n\r\nAudio \r\nID : 2 \r\nFormat : AAC \r\nFormat/Info : Advanced Audio Codec \r\nFormat profile : LC \r\nCodec ID : 40 \r\nDuration : 2h 17mn \r\nBit rate mode : Variable \r\nBit rate : 111 Kbps \r\nMaximum bit rate : 200 Kbps \r\nChannel(s) : 2 channels \r\nChannel positions : Front: L R \r\nSampling rate : 44.1 KHz \r\nFrame rate : 43.066 fps (1024 spf) \r\nCompression mode : Lossy \r\nStream size : 109 MiB (11%) \r\nDefault : Yes \r\nAlternate group : 1 \r\n \nhttp://extraimago.com/images/2016/05/01/vlcsnap-2016-05-01-01h40m01s920.png \nhttp://extraimago.com/images/2016/05/01/vlcsnap-2016-05-01-01h40m16s737.png \nhttp://extraimago.com/images/2016/05/01/vlcsnap-2016-05-01-01h40m19s706.png \nhttp://extraimago.com/images/2016/05/01/vlcsnap-2016-05-01-01h40m31s427.png \nhttp://extraimago.com/images/2016/05/01/vlcsnap-2016-05-01-01h42m32s210.png","torrent":{"xt":"urn:btih:7477205c4823ae345277b2d1c111cc2da7604065","amp;dn":"CAPTAIN+AMERICA+CIVIL+WAR+%282016%29+HDTS+x264+AAC+TeriKasam","amp;tr":["udp%3A%2F%2Ftracker.leechers-paradise.org%3A6969","udp%3A%2F%2Fzer0day.ch%3A1337","udp%3A%2F%2Fopen.demonii.com%3A1337","udp%3A%2F%2Ftracker.coppersurfer.tk%3A6969","udp%3A%2F%2Fexodus.desync.com%3A6969"],"infoHash":"7477205c4823ae345277b2d1c111cc2da7604065","infoHashBuffer":{"type":"Buffer","data":[116,119,32,92,72,35,174,52,82,119,178,209,193,17,204,45,167,96,64,101]},"announce":[],"urlList":[]}}